<svg xmlns="http://www.w3.org/2000/svg" width="79.014" height="81.519" viewBox="0 0 79.014 81.519"><path d="M84.595-25.84a.621.621,0,0,1-.7.7L72.2-25.312H18.018l-11.733.176a.621.621,0,0,1-.7-.7v-2.988a.621.621,0,0,1,.7-.7l11.733.176H42.1v-5.493H28.521l-12.7.176a.621.621,0,0,1-.7-.7v-2.9a.621.621,0,0,1,.7-.7l12.7.176H42.1v-5.581H28.784l-12.568.176q-.747,0-.747-.7v-2.856a.66.66,0,0,1,.747-.747l12.568.176H42.1V-54.36H19.907l-12.261.176a.621.621,0,0,1-.7-.7v-2.988a.621.621,0,0,1,.7-.7l12.261.176H42.1v-5.933H29.268l-12.788.176q-.747,0-.747-.7v-2.988q0-.7.747-.7l12.788.176H42.1a31.115,31.115,0,0,0-.7-6.943,47.263,47.263,0,0,1,5.757.571q1.1.176,1.1.791a5.514,5.514,0,0,1-.439,1.538,9.581,9.581,0,0,0-.571,4.043H59.5l13.755-.176a.621.621,0,0,1,.7.7l-.176,7.646v1.714l9.009-.176q.835,0,.835.791V-54.8q0,.7-.835.7l-9.009-.176v1.89l.176,7.471a.621.621,0,0,1-.7.7L59.5-44.385H47.241V-38.8H61.919l12.7-.176q.615,0,.615.7v2.9q0,.7-.615.7l-12.7-.176H47.241v5.493H72.2l11.689-.176a.621.621,0,0,1,.7.7ZM68.687-48.34V-54.36H47.241v6.021Zm0-10.063v-5.933H47.241V-58.4ZM72.378,5.317q0,.615-.747.615H67.676q-.7,0-.7-.615V2.329H23.6V5.581q0,.615-.747.615H18.984q-.7,0-.7-.615l.176-12.7v-5.229l-.176-7.383a.621.621,0,0,1,.7-.7l12.612.176H58.931l12.744-.176a.621.621,0,0,1,.7.7L72.2-13.315v6.021ZM66.973-1.626V-7.207H23.6v5.581Zm0-9.272V-16.3H23.6V-10.9Z" transform="translate(-5.581 75.322)" fill="#9300f0"/></svg>