<svg xmlns="http://www.w3.org/2000/svg" xmlns:xlink="http://www.w3.org/1999/xlink" width="106" height="106" viewBox="0 0 106 106"><defs><clipPath id="a"><path d="M0,0H106V42.51L54.229,106H0Z" transform="translate(158 213)" fill="none" stroke="#707070" stroke-width="1"/></clipPath></defs><g transform="translate(-158 -213)" clip-path="url(#a)"><path d="M87.056-15.205a14.511,14.511,0,0,0-2.725,3.34q-.615,1.187-.967,1.187T82.09-11.6A115.954,115.954,0,0,1,66.182-28.74a96.976,96.976,0,0,1-9.536-16.875L57-15.645H61.3l10.2-.176a.621.621,0,0,1,.7.7v3.779q0,.747-.7.747l-10.2-.176H57q.264,14.15.264,16.436,0,.747-.7.747H52.207q-.791,0-.791-.747,0-.176.044-2.461.176-7.207.22-13.975H48.252l-10.239.176a.66.66,0,0,1-.747-.747v-3.779q0-.7.747-.7l10.239.176h3.516L52.119-45.7A83.448,83.448,0,0,1,41.309-25.928,97.6,97.6,0,0,1,27.729-11.733q-.923.791-1.23.791-.352,0-1.1-1.011a10.365,10.365,0,0,0-2.769-2.769A97.9,97.9,0,0,0,38.8-30.894,78.3,78.3,0,0,0,49.175-48.779H40.869L28.3-48.6q-.747,0-.747-.7v-4q0-.7.747-.7l12.568.176H51.68v-9.185a66.489,66.489,0,0,0-.615-10.9A57.537,57.537,0,0,1,57-73.345q1.187.132,1.187.7a7.744,7.744,0,0,1-.659,1.714q-.439,1.23-.439,7.822v9.272h14.59l12.656-.176q.659,0,.659.7v4q0,.7-.659.7l-12.656-.176H59.063a96.585,96.585,0,0,0,12.48,18.853A127.907,127.907,0,0,0,87.056-15.205ZM29.443-71.367a2.078,2.078,0,0,1-.7,1.274,9.648,9.648,0,0,0-1.8,3.3A140.23,140.23,0,0,1,20.61-52.559v44.3l.176,14.019a.621.621,0,0,1-.7.7H15.732a.621.621,0,0,1-.7-.7l.176-14.019V-31.245q0-8.086.176-12.3a114.3,114.3,0,0,1-8.086,10.9q-.747.879-1.1.879t-.791-.879a11.786,11.786,0,0,0-2.329-3.6A91.627,91.627,0,0,0,21.709-68.379a25.791,25.791,0,0,0,1.23-6.064,44.038,44.038,0,0,1,5.581,1.978Q29.443-71.982,29.443-71.367Z" transform="translate(166 308)" fill="#001429"/></g></svg>